<svg xmlns="http://www.w3.org/2000/svg" xmlns:xlink="http://www.w3.org/1999/xlink" width="794" zoomAndPan="magnify" viewBox="0 0 595.5 842.249979" height="1123" preserveAspectRatio="xMidYMid meet" version="1.0"><defs><clipPath id="id1"><path d="M 178.589844 282.199219 L 416.328125 282.199219 L 416.328125 559.6875 L 178.589844 559.6875 Z M 178.589844 282.199219 " clip-rule="nonzero"/></clipPath></defs><g clip-path="url(#id1)"><path fill="rgb(7.449341%, 15.689087%, 24.308777%)" d="M 389.800781 282.199219 L 205.113281 282.199219 C 190.539062 282.199219 178.730469 294.027344 178.730469 308.628906 L 178.730469 493.617188 C 178.730469 508.21875 190.539062 520.046875 205.113281 520.046875 L 257.882812 520.046875 L 297.457031 559.6875 L 337.035156 520.046875 L 389.800781 520.046875 C 404.378906 520.046875 416.183594 508.21875 416.183594 493.617188 L 416.183594 308.628906 C 416.183594 294.027344 404.378906 282.199219 389.800781 282.199219 Z M 297.457031 325.804688 C 317.113281 325.804688 333.074219 341.792969 333.074219 361.484375 C 333.074219 381.171875 317.113281 397.160156 297.457031 397.160156 C 277.800781 397.160156 261.839844 381.171875 261.839844 361.484375 C 261.839844 341.792969 277.800781 325.804688 297.457031 325.804688 Z M 376.609375 467.191406 L 218.304688 467.191406 L 218.304688 455.300781 C 218.304688 428.871094 271.074219 414.335938 297.457031 414.335938 C 323.839844 414.335938 376.609375 428.871094 376.609375 455.300781 Z M 376.609375 467.191406 " fill-opacity="1" fill-rule="nonzero"/></g></svg>