<svg xmlns="http://www.w3.org/2000/svg" xmlns:xlink="http://www.w3.org/1999/xlink" width="794" zoomAndPan="magnify" viewBox="0 0 595.5 842.249979" height="1123" preserveAspectRatio="xMidYMid meet" version="1.0"><defs><clipPath id="id1"><path d="M 220 304.101562 L 243 304.101562 L 243 327 L 220 327 Z M 220 304.101562 " clip-rule="nonzero"/></clipPath><clipPath id="id2"><path d="M 353 304.101562 L 375 304.101562 L 375 327 L 353 327 Z M 353 304.101562 " clip-rule="nonzero"/></clipPath><clipPath id="id3"><path d="M 335 523 L 344 523 L 344 538.089844 L 335 538.089844 Z M 335 523 " clip-rule="nonzero"/></clipPath></defs><path fill="rgb(7.449341%, 15.689087%, 24.308777%)" d="M 201.753906 353.992188 C 209.191406 338.980469 211.996094 321.558594 203.195312 312.882812 C 188.582031 329.242188 190.613281 348.996094 201.753906 353.992188 Z M 201.753906 353.992188 " fill-opacity="1" fill-rule="nonzero"/><path fill="rgb(7.449341%, 15.689087%, 24.308777%)" d="M 236.335938 342.679688 C 227.664062 333.996094 209.90625 338.011719 201.753906 353.992188 C 213.019531 359.125 226.75 353.167969 236.335938 342.679688 Z M 236.335938 342.679688 " fill-opacity="1" fill-rule="nonzero"/><path fill="rgb(7.449341%, 15.689087%, 24.308777%)" d="M 190.003906 389.777344 C 192.515625 373.535156 189.480469 356.734375 178.40625 351.246094 C 169.992188 370.449219 177.863281 388.390625 190.003906 389.777344 Z M 190.003906 389.777344 " fill-opacity="1" fill-rule="nonzero"/><path fill="rgb(7.449341%, 15.689087%, 24.308777%)" d="M 219.15625 369.261719 C 208.210938 363.734375 192.882812 372.433594 190.003906 389.777344 C 202.277344 391.269531 213.574219 381.625 219.15625 369.261719 Z M 219.15625 369.261719 " fill-opacity="1" fill-rule="nonzero"/><path fill="rgb(7.449341%, 15.689087%, 24.308777%)" d="M 189.546875 427.070312 C 187.128906 410.816406 179.167969 395.964844 166.949219 394.085938 C 164.738281 414.605469 177.53125 429.398438 189.546875 427.070312 Z M 189.546875 427.070312 " fill-opacity="1" fill-rule="nonzero"/><path fill="rgb(7.449341%, 15.689087%, 24.308777%)" d="M 211.21875 398.953125 C 199.128906 397 187.148438 409.667969 189.546875 427.070312 C 201.691406 424.8125 209.636719 412.199219 211.21875 398.953125 Z M 211.21875 398.953125 " fill-opacity="1" fill-rule="nonzero"/><path fill="rgb(7.449341%, 15.689087%, 24.308777%)" d="M 200.375 463.082031 C 193.027344 448.035156 181.0625 436.238281 168.824219 438.113281 C 172.816406 458.410156 189.617188 468.957031 200.375 463.082031 Z M 200.375 463.082031 " fill-opacity="1" fill-rule="nonzero"/><path fill="rgb(7.449341%, 15.689087%, 24.308777%)" d="M 212.519531 429.460938 C 200.414062 431.230469 192.703125 446.921875 200.375 463.082031 C 211.257812 457.25 214.941406 442.605469 212.519531 429.460938 Z M 212.519531 429.460938 " fill-opacity="1" fill-rule="nonzero"/><path fill="rgb(7.449341%, 15.689087%, 24.308777%)" d="M 184.039062 480.027344 C 194.226562 498.574219 214.121094 503.988281 222.488281 495.019531 C 210.214844 482.398438 195.15625 474.535156 184.039062 480.027344 Z M 184.039062 480.027344 " fill-opacity="1" fill-rule="nonzero"/><path fill="rgb(7.449341%, 15.689087%, 24.308777%)" d="M 222.488281 495.019531 C 230.984375 486.058594 229.488281 470.554688 223.0625 458.507812 C 212.074219 463.859375 209.542969 481.410156 222.488281 495.019531 Z M 222.488281 495.019531 " fill-opacity="1" fill-rule="nonzero"/><g clip-path="url(#id1)"><path fill="rgb(7.449341%, 15.689087%, 24.308777%)" d="M 242.148438 304.28125 C 229.867188 304.511719 220.074219 314.664062 220.304688 326.96875 C 226.445312 326.851562 231.988281 324.257812 235.933594 320.152344 C 239.882812 316.046875 242.265625 310.433594 242.148438 304.28125 Z M 242.148438 304.28125 " fill-opacity="1" fill-rule="nonzero"/></g><path fill="rgb(7.449341%, 15.689087%, 24.308777%)" d="M 392.058594 312.882812 C 383.257812 321.558594 386.0625 338.980469 393.5 353.992188 C 404.636719 348.996094 406.671875 329.242188 392.058594 312.882812 Z M 392.058594 312.882812 " fill-opacity="1" fill-rule="nonzero"/><path fill="rgb(7.449341%, 15.689087%, 24.308777%)" d="M 358.917969 342.679688 C 368.503906 353.167969 382.234375 359.125 393.5 353.992188 C 385.347656 338.011719 367.585938 333.996094 358.917969 342.679688 Z M 358.917969 342.679688 " fill-opacity="1" fill-rule="nonzero"/><path fill="rgb(7.449341%, 15.689087%, 24.308777%)" d="M 416.847656 351.246094 C 405.773438 356.734375 402.734375 373.535156 405.246094 389.777344 C 417.386719 388.390625 425.261719 370.449219 416.847656 351.246094 Z M 416.847656 351.246094 " fill-opacity="1" fill-rule="nonzero"/><path fill="rgb(7.449341%, 15.689087%, 24.308777%)" d="M 376.09375 369.261719 C 381.679688 381.625 392.976562 391.269531 405.246094 389.777344 C 402.367188 372.433594 387.042969 363.734375 376.09375 369.261719 Z M 376.09375 369.261719 " fill-opacity="1" fill-rule="nonzero"/><path fill="rgb(7.449341%, 15.689087%, 24.308777%)" d="M 405.707031 427.070312 C 417.722656 429.398438 430.515625 414.605469 428.304688 394.085938 C 416.085938 395.964844 408.125 410.816406 405.707031 427.070312 Z M 405.707031 427.070312 " fill-opacity="1" fill-rule="nonzero"/><path fill="rgb(7.449341%, 15.689087%, 24.308777%)" d="M 384.035156 398.953125 C 385.613281 412.199219 393.5625 424.8125 405.707031 427.070312 C 408.105469 409.667969 396.125 397 384.035156 398.953125 Z M 384.035156 398.953125 " fill-opacity="1" fill-rule="nonzero"/><path fill="rgb(7.449341%, 15.689087%, 24.308777%)" d="M 394.878906 463.082031 C 405.636719 468.957031 422.4375 458.410156 426.425781 438.113281 C 414.191406 436.238281 402.226562 448.035156 394.878906 463.082031 Z M 394.878906 463.082031 " fill-opacity="1" fill-rule="nonzero"/><path fill="rgb(7.449341%, 15.689087%, 24.308777%)" d="M 382.734375 429.460938 C 380.308594 442.605469 383.992188 457.25 394.878906 463.082031 C 402.550781 446.921875 394.835938 431.230469 382.734375 429.460938 Z M 382.734375 429.460938 " fill-opacity="1" fill-rule="nonzero"/><path fill="rgb(7.449341%, 15.689087%, 24.308777%)" d="M 372.765625 495.019531 C 381.132812 503.988281 401.023438 498.574219 411.214844 480.027344 C 400.097656 474.535156 385.039062 482.398438 372.765625 495.019531 Z M 372.765625 495.019531 " fill-opacity="1" fill-rule="nonzero"/><path fill="rgb(7.449341%, 15.689087%, 24.308777%)" d="M 372.191406 458.507812 C 365.765625 470.554688 364.265625 486.058594 372.765625 495.019531 C 385.710938 481.410156 383.179688 463.859375 372.191406 458.507812 Z M 372.191406 458.507812 " fill-opacity="1" fill-rule="nonzero"/><g clip-path="url(#id2)"><path fill="rgb(7.449341%, 15.689087%, 24.308777%)" d="M 374.949219 326.96875 C 375.179688 314.664062 365.386719 304.511719 353.101562 304.28125 C 352.988281 310.433594 355.371094 316.046875 359.316406 320.152344 C 363.265625 324.257812 368.808594 326.851562 374.949219 326.96875 Z M 374.949219 326.96875 " fill-opacity="1" fill-rule="nonzero"/></g><path fill="rgb(7.449341%, 15.689087%, 24.308777%)" d="M 323.566406 361.027344 L 323.566406 341.519531 C 323.566406 339.257812 321.738281 337.421875 319.476562 337.421875 L 275.765625 337.421875 C 273.503906 337.421875 271.675781 339.257812 271.675781 341.519531 L 271.675781 361.03125 C 248.382812 371.097656 232.078125 394.269531 232.078125 421.324219 C 232.078125 457.589844 261.414062 486.972656 297.625 486.972656 C 333.835938 486.972656 363.171875 457.589844 363.171875 421.324219 C 363.171875 394.265625 346.867188 371.089844 323.566406 361.027344 Z M 279.859375 345.617188 L 315.382812 345.617188 L 315.382812 357.964844 C 303.875 354.894531 291.375 354.894531 279.859375 357.964844 Z M 319.148438 458.328125 L 279.253906 458.328125 L 279.253906 444.765625 L 290.671875 444.765625 L 290.671875 407.515625 L 276.105469 407.515625 L 276.105469 398.539062 L 294.230469 381.371094 L 307.855469 381.371094 L 307.855469 444.765625 L 319.148438 444.765625 Z M 319.148438 458.328125 " fill-opacity="1" fill-rule="nonzero"/><path fill="rgb(7.449341%, 15.689087%, 24.308777%)" d="M 335.144531 497.75 L 343.328125 497.75 L 343.328125 512.28125 L 335.144531 512.28125 Z M 335.144531 497.75 " fill-opacity="1" fill-rule="nonzero"/><g clip-path="url(#id3)"><path fill="rgb(7.449341%, 15.689087%, 24.308777%)" d="M 335.144531 523.785156 L 343.328125 523.785156 L 343.328125 538.320312 L 335.144531 538.320312 Z M 335.144531 523.785156 " fill-opacity="1" fill-rule="nonzero"/></g><path fill="rgb(7.449341%, 15.689087%, 24.308777%)" d="M 344.976562 513.9375 L 359.484375 513.9375 L 359.484375 522.132812 L 344.976562 522.132812 Z M 344.976562 513.9375 " fill-opacity="1" fill-rule="nonzero"/><path fill="rgb(7.449341%, 15.689087%, 24.308777%)" d="M 318.984375 513.9375 L 333.496094 513.9375 L 333.496094 522.132812 L 318.984375 522.132812 Z M 318.984375 513.9375 " fill-opacity="1" fill-rule="nonzero"/></svg>