<svg id="visual" viewBox="0 0 960 150" width="960" height="150" xmlns="http://www.w3.org/2000/svg" xmlns:xlink="http://www.w3.org/1999/xlink" version="1.1"><rect x="0" y="0" width="960" height="150" fill="#13283E"></rect><path d="M0 95L32 93.2C64 91.3 128 87.7 192 82C256 76.3 320 68.7 384 75.8C448 83 512 105 576 108.2C640 111.3 704 95.7 768 95.7C832 95.7 896 111.3 928 119.2L960 127L960 151L928 151C896 151 832 151 768 151C704 151 640 151 576 151C512 151 448 151 384 151C320 151 256 151 192 151C128 151 64 151 32 151L0 151Z" fill="#FFFFFF" stroke-linecap="round" stroke-linejoin="miter"></path></svg>