<svg xmlns="http://www.w3.org/2000/svg" xmlns:xlink="http://www.w3.org/1999/xlink" width="500" zoomAndPan="magnify" viewBox="0 0 375 374.999991" height="500" preserveAspectRatio="xMidYMid meet" version="1.0"><defs><g><g id="id1"/></g><clipPath id="id2"><path d="M 4.648438 165 L 85.039062 165 L 85.039062 211 L 4.648438 211 Z M 4.648438 165 " clip-rule="nonzero"/></clipPath><clipPath id="id3"><path d="M 4.648438 140.292969 L 85.039062 140.292969 L 85.039062 234.65625 L 4.648438 234.65625 Z M 4.648438 140.292969 " clip-rule="nonzero"/></clipPath></defs><g clip-path="url(#id2)"><path fill="rgb(52.549744%, 9.799194%, 13.328552%)" d="M 64.8125 199.496094 L 84.816406 187.425781 L 85.035156 187.558594 L 85.035156 187.425781 L 49.183594 165.816406 L 49.183594 190.078125 L 61.226562 197.339844 Z M 28.460938 177.570312 L 42.371094 185.972656 L 42.371094 210.234375 L 4.652344 187.472656 L 4.652344 187.351562 L 4.871094 187.472656 L 24.875 175.414062 L 28.460938 177.570312 " fill-opacity="1" fill-rule="evenodd"/></g><g clip-path="url(#id3)"><path fill="rgb(62.348938%, 3.919983%, 8.628845%)" d="M 85.011719 211.578125 L 85.011719 187.605469 L 84.792969 187.472656 L 67.9375 197.640625 L 64.789062 199.546875 L 44.820312 211.59375 L 44.820312 211.761719 L 24.730469 199.640625 L 4.652344 211.496094 L 4.652344 211.578125 L 39.875 232.863281 C 42.589844 234.511719 46.792969 234.65625 49.191406 233.203125 Z M 40.46875 141.746094 C 42.867188 140.292969 47.074219 140.449219 49.789062 142.097656 L 85.011719 163.378906 L 85.011719 163.464844 L 64.933594 175.304688 L 44.84375 163.195312 L 44.84375 163.367188 L 24.875 175.414062 L 21.722656 177.304688 L 4.871094 187.472656 L 4.652344 187.351562 L 4.652344 163.378906 L 40.46875 141.746094 " fill-opacity="1" fill-rule="evenodd"/><path fill="rgb(74.899292%, 0%, 6.269836%)" d="M 41.886719 209.992188 L 24.730469 199.640625 L 4.652344 211.496094 L 4.652344 211.578125 L 39.875 232.863281 C 40.480469 233.226562 41.171875 233.53125 41.886719 233.746094 C 42.832031 234.027344 43.835938 234.183594 44.820312 234.195312 L 44.820312 211.761719 Z M 44.84375 163.195312 L 44.84375 140.75 C 45.824219 140.777344 46.832031 140.933594 47.777344 141.210938 C 48.492188 141.429688 49.183594 141.71875 49.789062 142.097656 L 85.011719 163.378906 L 85.011719 163.464844 L 64.933594 175.304688 L 47.777344 164.96875 L 44.84375 163.195312 " fill-opacity="1" fill-rule="evenodd"/></g><g fill="rgb(7.449341%, 15.689087%, 24.308777%)" fill-opacity="1"><g transform="translate(91.277815, 201.574755)"><g><path d="M 12.875 0 L 3.640625 0 L 3.640625 -36.328125 L 12.875 -36.328125 Z M 12.875 0 "/></g></g></g><g fill="rgb(7.449341%, 15.689087%, 24.308777%)" fill-opacity="1"><g transform="translate(107.780349, 201.574755)"><g><path d="M 13.59375 -28.390625 C 17.71875 -28.390625 21.5625 -27.332031 25.125 -25.21875 L 22.0625 -19.40625 C 18.601562 -21.28125 15.660156 -22.21875 13.234375 -22.21875 C 11.398438 -22.21875 10.484375 -21.578125 10.484375 -20.296875 C 10.484375 -19.597656 10.984375 -19.015625 11.984375 -18.546875 C 12.992188 -18.085938 14.222656 -17.664062 15.671875 -17.28125 C 17.128906 -16.90625 18.570312 -16.429688 20 -15.859375 C 21.4375 -15.285156 22.65625 -14.375 23.65625 -13.125 C 24.664062 -11.882812 25.171875 -10.363281 25.171875 -8.5625 C 25.171875 -5.757812 24.082031 -3.570312 21.90625 -2 C 19.726562 -0.425781 16.890625 0.359375 13.390625 0.359375 C 8.441406 0.359375 4.253906 -0.953125 0.828125 -3.578125 L 3.6875 -9.296875 C 6.96875 -6.972656 10.269531 -5.8125 13.59375 -5.8125 C 15.632812 -5.8125 16.65625 -6.453125 16.65625 -7.734375 C 16.65625 -8.460938 16.160156 -9.066406 15.171875 -9.546875 C 14.191406 -10.035156 12.992188 -10.46875 11.578125 -10.84375 C 10.160156 -11.226562 8.738281 -11.703125 7.3125 -12.265625 C 5.894531 -12.835938 4.691406 -13.726562 3.703125 -14.9375 C 2.722656 -16.15625 2.234375 -17.679688 2.234375 -19.515625 C 2.234375 -22.316406 3.285156 -24.492188 5.390625 -26.046875 C 7.503906 -27.609375 10.238281 -28.390625 13.59375 -28.390625 Z M 13.59375 -28.390625 "/></g></g></g><g fill="rgb(7.449341%, 15.689087%, 24.308777%)" fill-opacity="1"><g transform="translate(134.402355, 201.574755)"><g><path d="M 30.46875 -27.984375 L 18.375 2.90625 C 16.300781 7.957031 12.703125 10.484375 7.578125 10.484375 C 4.597656 10.484375 1.878906 9.53125 -0.578125 7.625 L 3.171875 1.5 C 4.410156 2.507812 5.640625 3.015625 6.859375 3.015625 C 8.441406 3.015625 9.597656 2.269531 10.328125 0.78125 L 11 -0.625 L -0.625 -27.984375 L 8.609375 -27.984375 L 15.46875 -9.390625 L 21.546875 -27.984375 Z M 30.46875 -27.984375 "/></g></g></g><g fill="rgb(74.899292%, 0%, 6.269836%)" fill-opacity="1"><g transform="translate(164.496171, 201.574755)"><g><path d="M 20.65625 -36.640625 C 23.351562 -36.640625 26.007812 -36.085938 28.625 -34.984375 C 31.238281 -33.878906 33.460938 -32.390625 35.296875 -30.515625 L 29.953125 -24.1875 C 28.773438 -25.644531 27.363281 -26.796875 25.71875 -27.640625 C 24.070312 -28.484375 22.4375 -28.90625 20.8125 -28.90625 C 17.9375 -28.90625 15.53125 -27.894531 13.59375 -25.875 C 11.65625 -23.851562 10.6875 -21.351562 10.6875 -18.375 C 10.6875 -15.332031 11.65625 -12.789062 13.59375 -10.75 C 15.53125 -8.707031 17.9375 -7.6875 20.8125 -7.6875 C 22.332031 -7.6875 23.914062 -8.066406 25.5625 -8.828125 C 27.207031 -9.585938 28.671875 -10.625 29.953125 -11.9375 L 35.34375 -6.234375 C 33.375 -4.222656 31.046875 -2.609375 28.359375 -1.390625 C 25.679688 -0.179688 23.007812 0.421875 20.34375 0.421875 C 14.875 0.421875 10.320312 -1.359375 6.6875 -4.921875 C 3.0625 -8.492188 1.25 -12.941406 1.25 -18.265625 C 1.25 -23.492188 3.097656 -27.863281 6.796875 -31.375 C 10.503906 -34.882812 15.125 -36.640625 20.65625 -36.640625 Z M 20.65625 -36.640625 "/></g></g></g><g fill="rgb(74.899292%, 0%, 6.269836%)" fill-opacity="1"><g transform="translate(200.407345, 201.574755)"><g><path d="M 22.21875 -28.390625 C 25.289062 -28.390625 27.757812 -27.410156 29.625 -25.453125 C 31.5 -23.503906 32.4375 -20.898438 32.4375 -17.640625 L 32.4375 0 L 23.46875 0 L 23.46875 -15.15625 C 23.46875 -16.78125 23.023438 -18.066406 22.140625 -19.015625 C 21.253906 -19.972656 20.050781 -20.453125 18.53125 -20.453125 C 16.800781 -20.453125 15.414062 -19.828125 14.375 -18.578125 C 13.34375 -17.335938 12.828125 -15.75 12.828125 -13.8125 L 12.828125 0 L 3.84375 0 L 3.84375 -38.515625 L 12.828125 -38.515625 L 12.828125 -23.359375 C 14.796875 -26.640625 17.925781 -28.316406 22.21875 -28.390625 Z M 22.21875 -28.390625 "/></g></g></g><g fill="rgb(74.899292%, 0%, 6.269836%)" fill-opacity="1"><g transform="translate(235.59199, 201.574755)"><g><path d="M 16.140625 -28.390625 C 19.984375 -28.390625 22.96875 -27.5 25.09375 -25.71875 C 27.21875 -23.9375 28.300781 -21.453125 28.34375 -18.265625 L 28.34375 0 L 19.5625 0 L 19.5625 -3.21875 C 17.726562 -0.789062 14.875 0.421875 11 0.421875 C 8.0625 0.421875 5.726562 -0.390625 4 -2.015625 C 2.269531 -3.648438 1.40625 -5.765625 1.40625 -8.359375 C 1.40625 -11.023438 2.328125 -13.09375 4.171875 -14.5625 C 6.023438 -16.03125 8.679688 -16.78125 12.140625 -16.8125 L 19.515625 -16.8125 L 19.515625 -17.234375 C 19.515625 -18.617188 19.054688 -19.695312 18.140625 -20.46875 C 17.222656 -21.25 15.863281 -21.640625 14.0625 -21.640625 C 11.539062 -21.640625 8.753906 -20.863281 5.703125 -19.3125 L 3.171875 -25.21875 C 7.703125 -27.332031 12.023438 -28.390625 16.140625 -28.390625 Z M 13.75 -5.65625 C 15.175781 -5.65625 16.421875 -6.007812 17.484375 -6.71875 C 18.554688 -7.425781 19.234375 -8.351562 19.515625 -9.5 L 19.515625 -11.984375 L 13.859375 -11.984375 C 11.160156 -11.984375 9.8125 -10.984375 9.8125 -8.984375 C 9.8125 -7.941406 10.15625 -7.125 10.84375 -6.53125 C 11.539062 -5.945312 12.507812 -5.65625 13.75 -5.65625 Z M 13.75 -5.65625 "/></g></g></g><g fill="rgb(74.899292%, 0%, 6.269836%)" fill-opacity="1"><g transform="translate(266.728841, 201.574755)"><g><path d="M 4.6875 -39.421875 C 5.570312 -40.304688 6.707031 -40.75 8.09375 -40.75 C 9.476562 -40.75 10.613281 -40.304688 11.5 -39.421875 C 12.382812 -38.535156 12.828125 -37.398438 12.828125 -36.015625 C 12.828125 -34.640625 12.382812 -33.5 11.5 -32.59375 C 10.613281 -31.695312 9.476562 -31.25 8.09375 -31.25 C 6.707031 -31.25 5.570312 -31.695312 4.6875 -32.59375 C 3.8125 -33.5 3.375 -34.640625 3.375 -36.015625 C 3.375 -37.398438 3.8125 -38.535156 4.6875 -39.421875 Z M 12.515625 0 L 3.578125 0 L 3.578125 -27.984375 L 12.515625 -27.984375 Z M 12.515625 0 "/></g></g></g><g fill="rgb(74.899292%, 0%, 6.269836%)" fill-opacity="1"><g transform="translate(282.86811, 201.574755)"><g><path d="M 21.90625 -28.390625 C 24.988281 -28.390625 27.460938 -27.410156 29.328125 -25.453125 C 31.191406 -23.503906 32.125 -20.898438 32.125 -17.640625 L 32.125 0 L 23.203125 0 L 23.203125 -15.15625 C 23.203125 -16.78125 22.757812 -18.066406 21.875 -19.015625 C 21 -19.972656 19.796875 -20.453125 18.265625 -20.453125 C 16.679688 -20.453125 15.378906 -19.929688 14.359375 -18.890625 C 13.335938 -17.859375 12.738281 -16.492188 12.5625 -14.796875 L 12.5625 0 L 3.578125 0 L 3.578125 -27.984375 L 12.5625 -27.984375 L 12.5625 -23.40625 C 14.53125 -26.65625 17.644531 -28.316406 21.90625 -28.390625 Z M 21.90625 -28.390625 "/></g></g></g><g fill="rgb(7.449341%, 15.689087%, 24.308777%)" fill-opacity="1"><g transform="translate(172.561719, 216.265605)"><g><path d="M 2.03125 -4.71875 L 2.03125 -8.585938 L 4.242188 -8.585938 C 4.816406 -8.585938 5.28125 -8.402344 5.628906 -8.054688 C 5.96875 -7.691406 6.148438 -7.242188 6.148438 -6.679688 C 6.148438 -6.105469 5.96875 -5.644531 5.601562 -5.265625 C 5.238281 -4.902344 4.789062 -4.71875 4.242188 -4.71875 Z M 7.128906 -6.652344 C 7.128906 -7.492188 6.820312 -8.179688 6.234375 -8.726562 C 5.644531 -9.257812 4.945312 -9.523438 4.105469 -9.523438 L 1.050781 -9.523438 L 1.050781 0 L 2.03125 0 L 2.03125 -3.769531 L 4.105469 -3.769531 C 4.945312 -3.769531 5.660156 -4.035156 6.234375 -4.566406 C 6.820312 -5.125 7.128906 -5.8125 7.128906 -6.652344 Z M 7.128906 -6.652344 "/></g></g></g><g fill="rgb(7.449341%, 15.689087%, 24.308777%)" fill-opacity="1"><g transform="translate(179.969752, 216.265605)"><g><path d="M 6.710938 0 L 6.710938 -0.910156 L 2.03125 -0.910156 L 2.03125 -4.300781 L 6.570312 -4.300781 L 6.570312 -5.222656 L 2.03125 -5.222656 L 2.03125 -8.613281 L 6.710938 -8.613281 L 6.710938 -9.523438 L 1.050781 -9.523438 L 1.050781 0 Z M 6.710938 0 "/></g></g></g><g fill="rgb(7.449341%, 15.689087%, 24.308777%)" fill-opacity="1"><g transform="translate(187.727879, 216.265605)"><g><path d="M 2.03125 -4.707031 L 2.03125 -8.585938 L 4.242188 -8.585938 C 4.816406 -8.585938 5.28125 -8.402344 5.628906 -8.039062 C 5.96875 -7.675781 6.148438 -7.226562 6.148438 -6.667969 C 6.148438 -6.105469 5.96875 -5.644531 5.601562 -5.265625 C 5.238281 -4.886719 4.789062 -4.707031 4.242188 -4.707031 Z M 7.128906 -6.652344 C 7.128906 -7.464844 6.820312 -8.164062 6.234375 -8.710938 C 5.660156 -9.246094 4.945312 -9.523438 4.105469 -9.523438 L 1.050781 -9.523438 L 1.050781 0 L 2.03125 0 L 2.03125 -3.769531 L 3.164062 -3.769531 L 5.96875 0 L 7.285156 0 L 4.34375 -3.769531 C 5.085938 -3.808594 5.714844 -4.074219 6.234375 -4.566406 C 6.820312 -5.113281 7.128906 -5.8125 7.128906 -6.652344 Z M 7.128906 -6.652344 "/></g></g></g><g fill="rgb(7.449341%, 15.689087%, 24.308777%)" fill-opacity="1"><g transform="translate(195.345969, 216.265605)"><g><path d="M 6.710938 -8.613281 L 6.710938 -9.523438 L 1.050781 -9.523438 L 1.050781 0 L 2.03125 0 L 2.03125 -4.300781 L 6.570312 -4.300781 L 6.570312 -5.222656 L 2.03125 -5.222656 L 2.03125 -8.613281 Z M 6.710938 -8.613281 "/></g></g></g><g fill="rgb(7.449341%, 15.689087%, 24.308777%)" fill-opacity="1"><g transform="translate(202.333885, 216.265605)"><g><path d="M 9.441406 -4.789062 C 9.441406 -3.699219 9.046875 -2.773438 8.292969 -2.015625 C 7.523438 -1.246094 6.597656 -0.867188 5.519531 -0.867188 C 4.441406 -0.867188 3.515625 -1.246094 2.757812 -2.015625 C 1.988281 -2.773438 1.609375 -3.699219 1.609375 -4.789062 C 1.609375 -5.855469 1.988281 -6.777344 2.757812 -7.550781 C 3.515625 -8.304688 4.441406 -8.699219 5.519531 -8.699219 C 6.597656 -8.699219 7.523438 -8.304688 8.292969 -7.550781 C 9.046875 -6.777344 9.441406 -5.855469 9.441406 -4.789062 Z M 10.421875 -4.789062 C 10.421875 -5.460938 10.28125 -6.09375 10.027344 -6.695312 C 9.777344 -7.285156 9.425781 -7.800781 8.976562 -8.25 C 8.53125 -8.683594 8.011719 -9.035156 7.421875 -9.285156 C 6.820312 -9.539062 6.191406 -9.679688 5.519531 -9.679688 C 4.847656 -9.679688 4.203125 -9.539062 3.613281 -9.285156 C 3.027344 -9.035156 2.507812 -8.683594 2.058594 -8.25 C 1.609375 -7.800781 1.261719 -7.285156 1.007812 -6.695312 C 0.757812 -6.09375 0.628906 -5.460938 0.628906 -4.789062 C 0.628906 -4.117188 0.757812 -3.472656 1.007812 -2.886719 C 1.261719 -2.28125 1.609375 -1.765625 2.058594 -1.316406 C 2.507812 -0.867188 3.027344 -0.519531 3.613281 -0.265625 C 4.203125 -0.015625 4.847656 0.113281 5.519531 0.113281 C 6.191406 0.113281 6.820312 -0.015625 7.421875 -0.265625 C 8.011719 -0.519531 8.53125 -0.867188 8.976562 -1.316406 C 9.425781 -1.765625 9.777344 -2.28125 10.027344 -2.886719 C 10.28125 -3.472656 10.421875 -4.117188 10.421875 -4.789062 Z M 10.421875 -4.789062 "/></g></g></g><g fill="rgb(7.449341%, 15.689087%, 24.308777%)" fill-opacity="1"><g transform="translate(213.382917, 216.265605)"><g><path d="M 2.03125 -4.707031 L 2.03125 -8.585938 L 4.242188 -8.585938 C 4.816406 -8.585938 5.28125 -8.402344 5.628906 -8.039062 C 5.96875 -7.675781 6.148438 -7.226562 6.148438 -6.667969 C 6.148438 -6.105469 5.96875 -5.644531 5.601562 -5.265625 C 5.238281 -4.886719 4.789062 -4.707031 4.242188 -4.707031 Z M 7.128906 -6.652344 C 7.128906 -7.464844 6.820312 -8.164062 6.234375 -8.710938 C 5.660156 -9.246094 4.945312 -9.523438 4.105469 -9.523438 L 1.050781 -9.523438 L 1.050781 0 L 2.03125 0 L 2.03125 -3.769531 L 3.164062 -3.769531 L 5.96875 0 L 7.285156 0 L 4.34375 -3.769531 C 5.085938 -3.808594 5.714844 -4.074219 6.234375 -4.566406 C 6.820312 -5.113281 7.128906 -5.8125 7.128906 -6.652344 Z M 7.128906 -6.652344 "/></g></g></g><g fill="rgb(7.449341%, 15.689087%, 24.308777%)" fill-opacity="1"><g transform="translate(221.001007, 216.265605)"><g><path d="M 9.832031 0 L 10.828125 0 L 8.613281 -10.15625 L 5.492188 -2.003906 L 2.367188 -10.15625 L 0.140625 0 L 1.148438 0 L 2.621094 -6.777344 L 5.492188 0.558594 L 8.347656 -6.777344 Z M 9.832031 0 "/></g></g></g><g fill="rgb(7.449341%, 15.689087%, 24.308777%)" fill-opacity="1"><g transform="translate(231.966014, 216.265605)"><g><path d="M 2.589844 -3.5 L 4.328125 -7.886719 L 6.050781 -3.5 Z M 8.503906 0 L 4.328125 -10.183594 L 0.140625 0 L 1.203125 0 L 2.226562 -2.589844 L 6.414062 -2.589844 L 7.4375 0 Z M 8.503906 0 "/></g></g></g><g fill="rgb(7.449341%, 15.689087%, 24.308777%)" fill-opacity="1"><g transform="translate(240.606388, 216.265605)"><g><path d="M 2.03125 -7.015625 L 7.382812 0.589844 L 7.382812 -9.523438 L 6.402344 -9.523438 L 6.402344 -2.519531 L 1.050781 -10.125 L 1.050781 0 L 2.03125 0 Z M 2.03125 -7.015625 "/></g></g></g><g fill="rgb(7.449341%, 15.689087%, 24.308777%)" fill-opacity="1"><g transform="translate(249.036701, 216.265605)"><g><path d="M 9.789062 -2.914062 L 8.710938 -2.914062 C 8.375 -2.296875 7.914062 -1.792969 7.324219 -1.429688 C 6.738281 -1.050781 6.078125 -0.867188 5.378906 -0.867188 C 4.328125 -0.867188 3.429688 -1.246094 2.6875 -2.03125 C 1.960938 -2.773438 1.609375 -3.683594 1.609375 -4.75 C 1.609375 -5.8125 1.960938 -6.722656 2.6875 -7.480469 C 3.027344 -7.828125 3.429688 -8.109375 3.894531 -8.320312 C 4.34375 -8.53125 4.789062 -8.640625 5.238281 -8.640625 C 5.671875 -8.640625 6.050781 -8.585938 6.386719 -8.488281 C 7.410156 -8.179688 8.179688 -7.5625 8.699219 -6.625 L 9.777344 -6.625 C 9.414062 -7.523438 8.839844 -8.25 8.039062 -8.808594 C 7.226562 -9.371094 6.34375 -9.652344 5.378906 -9.652344 C 4.046875 -9.652344 2.925781 -9.160156 2.003906 -8.195312 C 1.570312 -7.746094 1.234375 -7.214844 0.996094 -6.625 C 0.742188 -6.035156 0.628906 -5.40625 0.628906 -4.75 C 0.628906 -3.402344 1.078125 -2.269531 2.003906 -1.316406 C 2.925781 -0.335938 4.046875 0.140625 5.378906 0.140625 C 6.34375 0.140625 7.226562 -0.140625 8.054688 -0.699219 C 8.851562 -1.261719 9.425781 -1.988281 9.789062 -2.914062 Z M 9.789062 -2.914062 "/></g></g></g><g fill="rgb(7.449341%, 15.689087%, 24.308777%)" fill-opacity="1"><g transform="translate(259.245503, 216.265605)"><g><path d="M 6.710938 0 L 6.710938 -0.910156 L 2.03125 -0.910156 L 2.03125 -4.300781 L 6.570312 -4.300781 L 6.570312 -5.222656 L 2.03125 -5.222656 L 2.03125 -8.613281 L 6.710938 -8.613281 L 6.710938 -9.523438 L 1.050781 -9.523438 L 1.050781 0 Z M 6.710938 0 "/></g></g></g><g fill="rgb(7.449341%, 15.689087%, 24.308777%)" fill-opacity="1"><g transform="translate(267.003628, 216.265605)"><g/></g></g><g fill="rgb(75.289917%, 0%, 6.269836%)" fill-opacity="1"><g transform="translate(270.781726, 216.265605)"><g><path d="M 3.683594 -4.832031 L 5.769531 -2.15625 C 5.628906 -2.015625 5.476562 -1.863281 5.308594 -1.707031 C 4.691406 -1.121094 4.117188 -0.839844 3.613281 -0.839844 C 3.136719 -0.839844 2.71875 -1.023438 2.382812 -1.402344 C 2.046875 -1.765625 1.875 -2.183594 1.875 -2.660156 C 1.875 -3.054688 2.101562 -3.472656 2.5625 -3.9375 C 2.773438 -4.144531 3.136719 -4.441406 3.683594 -4.832031 Z M 3.601562 -6.386719 C 3.179688 -6.820312 2.984375 -7.226562 2.984375 -7.648438 C 2.984375 -8.054688 3.09375 -8.347656 3.332031 -8.542969 C 3.558594 -8.726562 3.824219 -8.808594 4.105469 -8.796875 C 4.382812 -8.78125 4.648438 -8.683594 4.886719 -8.488281 C 5.113281 -8.292969 5.238281 -8.011719 5.238281 -7.675781 C 5.238281 -7.324219 5.085938 -7.003906 4.789062 -6.710938 C 4.648438 -6.570312 4.511719 -6.457031 4.355469 -6.34375 C 4.203125 -6.234375 4.0625 -6.136719 3.921875 -6.035156 C 3.808594 -6.148438 3.710938 -6.273438 3.601562 -6.386719 Z M 8.332031 -3.710938 L 7.535156 -4.242188 L 7.003906 -3.570312 C 6.820312 -3.347656 6.640625 -3.125 6.457031 -2.898438 L 4.496094 -5.40625 C 4.664062 -5.546875 4.859375 -5.6875 5.054688 -5.855469 C 5.785156 -6.457031 6.148438 -7.074219 6.148438 -7.691406 C 6.148438 -8.265625 5.953125 -8.738281 5.5625 -9.117188 C 5.183594 -9.484375 4.707031 -9.664062 4.117188 -9.664062 C 3.5 -9.664062 2.996094 -9.46875 2.632812 -9.078125 C 2.253906 -8.683594 2.074219 -8.195312 2.074219 -7.605469 C 2.074219 -7.015625 2.410156 -6.332031 3.082031 -5.5625 C 2.800781 -5.351562 2.519531 -5.15625 2.269531 -4.957031 C 1.359375 -4.300781 0.910156 -3.5 0.910156 -2.589844 C 0.910156 -1.792969 1.164062 -1.132812 1.695312 -0.601562 C 1.945312 -0.351562 2.242188 -0.167969 2.578125 -0.0273438 C 2.914062 0.113281 3.304688 0.167969 3.738281 0.167969 C 4.1875 0.167969 4.679688 0 5.253906 -0.363281 C 5.546875 -0.53125 5.910156 -0.855469 6.386719 -1.332031 L 7.421875 0.0273438 L 8.710938 0 L 7.074219 -2.144531 C 7.773438 -2.984375 8.195312 -3.515625 8.332031 -3.710938 Z M 8.332031 -3.710938 "/></g></g></g><g fill="rgb(7.449341%, 15.689087%, 24.308777%)" fill-opacity="1"><g transform="translate(280.428759, 216.265605)"><g/></g></g><g fill="rgb(7.449341%, 15.689087%, 24.308777%)" fill-opacity="1"><g transform="translate(284.209796, 216.265605)"><g><path d="M 2.03125 0 L 2.03125 -9.523438 L 1.050781 -9.523438 L 1.050781 0 Z M 2.03125 0 "/></g></g></g><g fill="rgb(7.449341%, 15.689087%, 24.308777%)" fill-opacity="1"><g transform="translate(287.290641, 216.265605)"><g><path d="M 2.03125 -7.015625 L 7.382812 0.589844 L 7.382812 -9.523438 L 6.402344 -9.523438 L 6.402344 -2.519531 L 1.050781 -10.125 L 1.050781 0 L 2.03125 0 Z M 2.03125 -7.015625 "/></g></g></g><g fill="rgb(7.449341%, 15.689087%, 24.308777%)" fill-opacity="1"><g transform="translate(295.720954, 216.265605)"><g><path d="M 2.03125 -7.015625 L 7.382812 0.589844 L 7.382812 -9.523438 L 6.402344 -9.523438 L 6.402344 -2.519531 L 1.050781 -10.125 L 1.050781 0 L 2.03125 0 Z M 2.03125 -7.015625 "/></g></g></g><g fill="rgb(7.449341%, 15.689087%, 24.308777%)" fill-opacity="1"><g transform="translate(304.151268, 216.265605)"><g><path d="M 9.441406 -4.789062 C 9.441406 -3.699219 9.046875 -2.773438 8.292969 -2.015625 C 7.523438 -1.246094 6.597656 -0.867188 5.519531 -0.867188 C 4.441406 -0.867188 3.515625 -1.246094 2.757812 -2.015625 C 1.988281 -2.773438 1.609375 -3.699219 1.609375 -4.789062 C 1.609375 -5.855469 1.988281 -6.777344 2.757812 -7.550781 C 3.515625 -8.304688 4.441406 -8.699219 5.519531 -8.699219 C 6.597656 -8.699219 7.523438 -8.304688 8.292969 -7.550781 C 9.046875 -6.777344 9.441406 -5.855469 9.441406 -4.789062 Z M 10.421875 -4.789062 C 10.421875 -5.460938 10.28125 -6.09375 10.027344 -6.695312 C 9.777344 -7.285156 9.425781 -7.800781 8.976562 -8.25 C 8.53125 -8.683594 8.011719 -9.035156 7.421875 -9.285156 C 6.820312 -9.539062 6.191406 -9.679688 5.519531 -9.679688 C 4.847656 -9.679688 4.203125 -9.539062 3.613281 -9.285156 C 3.027344 -9.035156 2.507812 -8.683594 2.058594 -8.25 C 1.609375 -7.800781 1.261719 -7.285156 1.007812 -6.695312 C 0.757812 -6.09375 0.628906 -5.460938 0.628906 -4.789062 C 0.628906 -4.117188 0.757812 -3.472656 1.007812 -2.886719 C 1.261719 -2.28125 1.609375 -1.765625 2.058594 -1.316406 C 2.507812 -0.867188 3.027344 -0.519531 3.613281 -0.265625 C 4.203125 -0.015625 4.847656 0.113281 5.519531 0.113281 C 6.191406 0.113281 6.820312 -0.015625 7.421875 -0.265625 C 8.011719 -0.519531 8.53125 -0.867188 8.976562 -1.316406 C 9.425781 -1.765625 9.777344 -2.28125 10.027344 -2.886719 C 10.28125 -3.472656 10.421875 -4.117188 10.421875 -4.789062 Z M 10.421875 -4.789062 "/></g></g></g><g fill="rgb(7.449341%, 15.689087%, 24.308777%)" fill-opacity="1"><g transform="translate(315.2003, 216.265605)"><g><path d="M 4.46875 0.574219 L 8.78125 -9.523438 L 7.71875 -9.523438 L 4.46875 -1.847656 L 1.203125 -9.523438 L 0.140625 -9.523438 Z M 4.46875 0.574219 "/></g></g></g><g fill="rgb(7.449341%, 15.689087%, 24.308777%)" fill-opacity="1"><g transform="translate(324.120746, 216.265605)"><g><path d="M 2.589844 -3.5 L 4.328125 -7.886719 L 6.050781 -3.5 Z M 8.503906 0 L 4.328125 -10.183594 L 0.140625 0 L 1.203125 0 L 2.226562 -2.589844 L 6.414062 -2.589844 L 7.4375 0 Z M 8.503906 0 "/></g></g></g><g fill="rgb(7.449341%, 15.689087%, 24.308777%)" fill-opacity="1"><g transform="translate(332.761116, 216.265605)"><g><path d="M 0.28125 -8.640625 L 2.589844 -8.640625 L 2.589844 -0.0273438 L 3.570312 -0.0273438 L 3.570312 -8.640625 L 5.882812 -8.640625 L 5.882812 -9.550781 L 0.28125 -9.550781 Z M 0.28125 -8.640625 "/></g></g></g><g fill="rgb(7.449341%, 15.689087%, 24.308777%)" fill-opacity="1"><g transform="translate(338.922806, 216.265605)"><g><path d="M 2.03125 0 L 2.03125 -9.523438 L 1.050781 -9.523438 L 1.050781 0 Z M 2.03125 0 "/></g></g></g><g fill="rgb(7.449341%, 15.689087%, 24.308777%)" fill-opacity="1"><g transform="translate(342.003651, 216.265605)"><g><path d="M 9.441406 -4.789062 C 9.441406 -3.699219 9.046875 -2.773438 8.292969 -2.015625 C 7.523438 -1.246094 6.597656 -0.867188 5.519531 -0.867188 C 4.441406 -0.867188 3.515625 -1.246094 2.757812 -2.015625 C 1.988281 -2.773438 1.609375 -3.699219 1.609375 -4.789062 C 1.609375 -5.855469 1.988281 -6.777344 2.757812 -7.550781 C 3.515625 -8.304688 4.441406 -8.699219 5.519531 -8.699219 C 6.597656 -8.699219 7.523438 -8.304688 8.292969 -7.550781 C 9.046875 -6.777344 9.441406 -5.855469 9.441406 -4.789062 Z M 10.421875 -4.789062 C 10.421875 -5.460938 10.28125 -6.09375 10.027344 -6.695312 C 9.777344 -7.285156 9.425781 -7.800781 8.976562 -8.25 C 8.53125 -8.683594 8.011719 -9.035156 7.421875 -9.285156 C 6.820312 -9.539062 6.191406 -9.679688 5.519531 -9.679688 C 4.847656 -9.679688 4.203125 -9.539062 3.613281 -9.285156 C 3.027344 -9.035156 2.507812 -8.683594 2.058594 -8.25 C 1.609375 -7.800781 1.261719 -7.285156 1.007812 -6.695312 C 0.757812 -6.09375 0.628906 -5.460938 0.628906 -4.789062 C 0.628906 -4.117188 0.757812 -3.472656 1.007812 -2.886719 C 1.261719 -2.28125 1.609375 -1.765625 2.058594 -1.316406 C 2.507812 -0.867188 3.027344 -0.519531 3.613281 -0.265625 C 4.203125 -0.015625 4.847656 0.113281 5.519531 0.113281 C 6.191406 0.113281 6.820312 -0.015625 7.421875 -0.265625 C 8.011719 -0.519531 8.53125 -0.867188 8.976562 -1.316406 C 9.425781 -1.765625 9.777344 -2.28125 10.027344 -2.886719 C 10.28125 -3.472656 10.421875 -4.117188 10.421875 -4.789062 Z M 10.421875 -4.789062 "/></g></g></g><g fill="rgb(7.449341%, 15.689087%, 24.308777%)" fill-opacity="1"><g transform="translate(353.052686, 216.265605)"><g><path d="M 2.03125 -7.015625 L 7.382812 0.589844 L 7.382812 -9.523438 L 6.402344 -9.523438 L 6.402344 -2.519531 L 1.050781 -10.125 L 1.050781 0 L 2.03125 0 Z M 2.03125 -7.015625 "/></g></g></g></svg>