<svg xmlns="http://www.w3.org/2000/svg" xmlns:xlink="http://www.w3.org/1999/xlink" width="794" zoomAndPan="magnify" viewBox="0 0 595.5 842.249979" height="1123" preserveAspectRatio="xMidYMid meet" version="1.0"><defs><clipPath id="id1"><path d="M 237.597656 360.882812 L 357.589844 360.882812 L 357.589844 480.875 L 237.597656 480.875 Z M 237.597656 360.882812 " clip-rule="nonzero"/></clipPath></defs><g clip-path="url(#id1)"><path fill="rgb(65.098572%, 65.098572%, 65.098572%)" d="M 357.589844 392.882812 C 357.589844 387.367188 353.105469 382.882812 347.589844 382.882812 C 344.230469 382.882812 341.261719 384.5625 339.453125 387.113281 L 307.359375 372.992188 C 307.507812 372.3125 307.59375 371.609375 307.59375 370.882812 C 307.59375 365.367188 303.109375 360.882812 297.59375 360.882812 C 292.082031 360.882812 287.59375 365.367188 287.59375 370.882812 C 287.59375 371.609375 287.679688 372.3125 287.828125 372.992188 L 255.734375 387.113281 C 253.925781 384.5625 250.957031 382.882812 247.597656 382.882812 C 242.082031 382.882812 237.597656 387.367188 237.597656 392.882812 C 237.597656 397.707031 241.039062 401.75 245.597656 402.679688 L 245.597656 439.082031 C 241.039062 440.011719 237.597656 444.050781 237.597656 448.878906 C 237.597656 454.390625 242.082031 458.878906 247.597656 458.878906 C 250.957031 458.878906 253.925781 457.199219 255.734375 454.644531 L 287.828125 468.765625 C 287.679688 469.445312 287.59375 470.152344 287.59375 470.878906 C 287.59375 476.390625 292.082031 480.875 297.59375 480.875 C 303.109375 480.875 307.59375 476.390625 307.59375 470.878906 C 307.59375 470.152344 307.507812 469.445312 307.359375 468.765625 L 339.453125 454.644531 C 341.261719 457.199219 344.230469 458.878906 347.589844 458.878906 C 353.105469 458.878906 357.589844 454.390625 357.589844 448.878906 C 357.589844 444.050781 354.148438 440.011719 349.589844 439.082031 L 349.589844 402.679688 C 354.148438 401.75 357.589844 397.707031 357.589844 392.882812 Z M 344 439.574219 L 324.007812 408.378906 L 340.0625 399.386719 C 341.480469 401.027344 343.390625 402.226562 345.589844 402.679688 L 345.589844 439.082031 C 345.039062 439.191406 344.515625 439.371094 344 439.574219 Z M 340.0625 442.371094 L 307.074219 423.898438 C 307.382812 422.9375 307.59375 421.9375 307.59375 420.878906 C 307.59375 419.820312 307.382812 418.820312 307.078125 417.863281 L 320.511719 410.339844 L 340.628906 441.71875 C 340.621094 441.722656 340.617188 441.734375 340.609375 441.742188 C 340.410156 441.9375 340.242188 442.160156 340.0625 442.371094 Z M 302.800781 423.792969 C 302.269531 424.734375 301.515625 425.492188 300.625 426.027344 C 300.597656 426.042969 300.566406 426.058594 300.539062 426.074219 C 300.15625 426.296875 299.746094 426.464844 299.320312 426.597656 C 299.230469 426.625 299.144531 426.65625 299.054688 426.679688 C 298.578125 426.800781 298.09375 426.878906 297.59375 426.878906 C 297.097656 426.878906 296.609375 426.800781 296.136719 426.679688 C 296.042969 426.65625 295.957031 426.625 295.867188 426.59375 C 295.445312 426.464844 295.035156 426.296875 294.648438 426.074219 C 294.621094 426.058594 294.59375 426.046875 294.5625 426.027344 C 293.675781 425.492188 292.917969 424.734375 292.390625 423.792969 C 292.382812 423.78125 292.375 423.777344 292.367188 423.765625 C 291.890625 422.90625 291.59375 421.929688 291.59375 420.878906 C 291.59375 419.828125 291.890625 418.855469 292.367188 417.992188 C 292.371094 417.984375 292.382812 417.976562 292.386719 417.96875 C 292.917969 417.027344 293.675781 416.265625 294.5625 415.730469 C 294.589844 415.714844 294.621094 415.703125 294.648438 415.6875 C 295.03125 415.464844 295.445312 415.296875 295.867188 415.164062 C 295.957031 415.136719 296.042969 415.105469 296.136719 415.078125 C 296.609375 414.957031 297.097656 414.878906 297.59375 414.878906 C 298.09375 414.878906 298.578125 414.957031 299.050781 415.078125 C 299.144531 415.105469 299.230469 415.136719 299.320312 415.164062 C 299.742188 415.296875 300.15625 415.464844 300.539062 415.6875 C 300.566406 415.703125 300.597656 415.714844 300.625 415.730469 C 301.507812 416.265625 302.269531 417.027344 302.796875 417.96875 C 302.804688 417.980469 302.816406 417.992188 302.828125 418.003906 C 303.300781 418.863281 303.59375 419.832031 303.59375 420.878906 C 303.59375 421.929688 303.296875 422.90625 302.820312 423.765625 C 302.816406 423.777344 302.804688 423.78125 302.800781 423.792969 Z M 249.597656 439.082031 L 249.597656 402.679688 C 251.796875 402.230469 253.707031 401.027344 255.125 399.386719 L 271.179688 408.378906 L 251.1875 439.574219 C 250.671875 439.371094 250.148438 439.191406 249.597656 439.082031 Z M 254.578125 441.742188 C 254.570312 441.738281 254.566406 441.726562 254.5625 441.71875 L 274.679688 410.339844 L 288.113281 417.863281 C 287.804688 418.820312 287.59375 419.820312 287.59375 420.878906 C 287.59375 421.9375 287.804688 422.9375 288.109375 423.898438 L 255.125 442.367188 C 254.945312 442.160156 254.777344 441.9375 254.578125 441.742188 Z M 305.003906 414.230469 C 304.808594 414.011719 304.613281 413.796875 304.394531 413.59375 C 304.101562 413.316406 303.789062 413.0625 303.464844 412.824219 C 303.269531 412.679688 303.066406 412.546875 302.859375 412.414062 C 302.476562 412.175781 302.082031 411.957031 301.671875 411.769531 C 301.511719 411.695312 301.34375 411.636719 301.175781 411.570312 C 300.695312 411.382812 300.199219 411.21875 299.6875 411.109375 C 299.652344 411.101562 299.625 411.089844 299.589844 411.082031 L 299.589844 380.679688 C 299.644531 380.667969 299.695312 380.644531 299.746094 380.632812 C 300.242188 380.523438 300.722656 380.386719 301.191406 380.203125 L 318.34375 406.964844 L 305.132812 414.363281 C 305.09375 414.316406 305.046875 414.277344 305.003906 414.230469 Z M 295.4375 380.632812 C 295.492188 380.644531 295.539062 380.667969 295.59375 380.679688 L 295.59375 411.082031 C 295.5625 411.089844 295.53125 411.101562 295.5 411.109375 C 294.988281 411.21875 294.492188 411.382812 294.007812 411.570312 C 293.84375 411.636719 293.675781 411.699219 293.511719 411.769531 C 293.101562 411.957031 292.710938 412.175781 292.328125 412.414062 C 292.121094 412.542969 291.917969 412.679688 291.71875 412.824219 C 291.394531 413.0625 291.085938 413.316406 290.789062 413.59375 C 290.574219 413.796875 290.378906 414.011719 290.179688 414.230469 C 290.136719 414.277344 290.09375 414.316406 290.050781 414.363281 L 276.839844 406.964844 L 293.992188 380.203125 C 294.460938 380.386719 294.945312 380.523438 295.4375 380.632812 Z M 347.589844 386.882812 C 350.898438 386.882812 353.589844 389.574219 353.589844 392.882812 C 353.589844 396.1875 350.898438 398.878906 347.589844 398.878906 C 345.359375 398.878906 343.429688 397.640625 342.398438 395.828125 C 342.390625 395.820312 342.390625 395.804688 342.386719 395.792969 C 342.132812 395.34375 341.945312 394.882812 341.8125 394.414062 C 341.804688 394.386719 341.792969 394.355469 341.785156 394.324219 C 341.660156 393.847656 341.589844 393.363281 341.589844 392.882812 C 341.589844 392.054688 341.765625 391.246094 342.109375 390.46875 C 342.109375 390.46875 342.109375 390.46875 342.109375 390.464844 C 343.039062 388.359375 345.144531 386.882812 347.589844 386.882812 Z M 305.746094 376.65625 L 337.820312 390.765625 C 337.816406 390.78125 337.816406 390.796875 337.8125 390.8125 C 337.796875 390.875 337.792969 390.9375 337.78125 391.003906 C 337.660156 391.621094 337.59375 392.246094 337.59375 392.882812 C 337.59375 393.472656 337.660156 394.058594 337.769531 394.636719 C 337.820312 394.921875 337.902344 395.195312 337.976562 395.472656 C 338.019531 395.617188 338.035156 395.765625 338.082031 395.914062 L 321.84375 405.007812 L 304.554688 378.035156 C 304.636719 377.957031 304.710938 377.878906 304.785156 377.796875 C 305.128906 377.441406 305.457031 377.066406 305.746094 376.65625 Z M 297.59375 364.882812 C 300.902344 364.882812 303.59375 367.574219 303.59375 370.882812 C 303.59375 371.738281 303.40625 372.550781 303.082031 373.289062 C 303.082031 373.292969 303.078125 373.292969 303.078125 373.292969 C 303.070312 373.3125 303.0625 373.324219 303.054688 373.34375 C 302.929688 373.613281 302.789062 373.875 302.632812 374.121094 C 302.550781 374.246094 302.460938 374.359375 302.371094 374.476562 C 302.25 374.636719 302.121094 374.796875 301.984375 374.945312 C 301.886719 375.050781 301.789062 375.152344 301.6875 375.246094 C 301.515625 375.40625 301.332031 375.554688 301.140625 375.695312 C 301.058594 375.757812 300.976562 375.828125 300.890625 375.886719 C 300.875 375.898438 300.855469 375.90625 300.835938 375.914062 C 300.832031 375.917969 300.828125 375.917969 300.820312 375.921875 C 300.398438 376.195312 299.945312 376.394531 299.476562 376.550781 C 299.367188 376.585938 299.253906 376.625 299.140625 376.652344 C 298.933594 376.710938 298.722656 376.753906 298.511719 376.789062 C 298.398438 376.804688 298.289062 376.808594 298.175781 376.820312 C 297.789062 376.859375 297.402344 376.859375 297.015625 376.820312 C 296.902344 376.8125 296.792969 376.804688 296.683594 376.789062 C 296.46875 376.753906 296.257812 376.707031 296.050781 376.652344 C 295.9375 376.625 295.824219 376.585938 295.714844 376.550781 C 295.246094 376.394531 294.792969 376.195312 294.371094 375.921875 C 294.367188 375.917969 294.359375 375.917969 294.355469 375.914062 C 294.339844 375.90625 294.316406 375.898438 294.300781 375.886719 C 294.214844 375.828125 294.136719 375.761719 294.050781 375.695312 C 293.859375 375.554688 293.679688 375.40625 293.507812 375.246094 C 293.402344 375.152344 293.304688 375.050781 293.207031 374.945312 C 293.070312 374.796875 292.945312 374.636719 292.820312 374.476562 C 292.730469 374.359375 292.640625 374.246094 292.558594 374.121094 C 292.398438 373.871094 292.257812 373.609375 292.132812 373.335938 C 292.125 373.320312 292.117188 373.308594 292.109375 373.296875 C 292.109375 373.292969 292.109375 373.292969 292.109375 373.292969 C 291.78125 372.550781 291.59375 371.738281 291.59375 370.882812 C 291.59375 367.574219 294.285156 364.882812 297.59375 364.882812 Z M 257.367188 390.765625 L 289.441406 376.65625 C 289.730469 377.066406 290.058594 377.441406 290.402344 377.800781 C 290.476562 377.878906 290.554688 377.960938 290.632812 378.039062 L 273.34375 405.007812 L 257.105469 395.914062 C 257.152344 395.769531 257.171875 395.621094 257.210938 395.476562 C 257.289062 395.195312 257.367188 394.921875 257.417969 394.636719 C 257.527344 394.058594 257.597656 393.472656 257.597656 392.882812 C 257.597656 392.246094 257.527344 391.621094 257.40625 391.003906 C 257.394531 390.9375 257.386719 390.875 257.375 390.8125 C 257.371094 390.796875 257.371094 390.78125 257.367188 390.765625 Z M 241.597656 392.882812 C 241.597656 389.574219 244.289062 386.882812 247.597656 386.882812 C 250.042969 386.882812 252.148438 388.359375 253.082031 390.46875 C 253.082031 390.46875 253.082031 390.46875 253.082031 390.472656 C 253.421875 391.246094 253.597656 392.054688 253.597656 392.882812 C 253.597656 393.363281 253.527344 393.847656 253.398438 394.324219 C 253.390625 394.351562 253.378906 394.382812 253.371094 394.414062 C 253.238281 394.882812 253.054688 395.34375 252.800781 395.792969 C 252.796875 395.804688 252.796875 395.820312 252.789062 395.832031 C 251.757812 397.640625 249.828125 398.878906 247.597656 398.878906 C 244.289062 398.878906 241.597656 396.1875 241.597656 392.882812 Z M 247.597656 454.878906 C 244.289062 454.878906 241.597656 452.1875 241.597656 448.878906 C 241.597656 445.570312 244.289062 442.878906 247.597656 442.878906 C 248.785156 442.878906 249.886719 443.238281 250.820312 443.835938 C 250.824219 443.835938 250.824219 443.839844 250.828125 443.839844 C 251.246094 444.109375 251.621094 444.429688 251.957031 444.78125 C 251.996094 444.824219 252.03125 444.875 252.070312 444.917969 C 252.332031 445.210938 252.558594 445.527344 252.757812 445.863281 C 252.769531 445.882812 252.78125 445.910156 252.792969 445.929688 C 252.796875 445.941406 252.796875 445.953125 252.804688 445.964844 C 253.058594 446.417969 253.242188 446.878906 253.375 447.347656 C 253.382812 447.378906 253.394531 447.40625 253.402344 447.4375 C 253.527344 447.914062 253.597656 448.394531 253.597656 448.878906 C 253.597656 449.703125 253.421875 450.515625 253.082031 451.289062 C 253.082031 451.292969 253.082031 451.292969 253.082031 451.292969 C 252.148438 453.398438 250.042969 454.878906 247.597656 454.878906 Z M 289.441406 465.101562 L 257.367188 450.992188 C 257.371094 450.976562 257.371094 450.960938 257.375 450.949219 C 257.390625 450.882812 257.394531 450.820312 257.40625 450.757812 C 257.527344 450.136719 257.597656 449.511719 257.597656 448.878906 C 257.597656 448.285156 257.527344 447.703125 257.417969 447.125 C 257.402344 447.039062 257.410156 446.949219 257.390625 446.867188 C 257.351562 446.667969 257.265625 446.480469 257.210938 446.285156 C 257.171875 446.140625 257.152344 445.992188 257.105469 445.847656 L 290.054688 427.394531 C 290.09375 427.441406 290.140625 427.484375 290.183594 427.527344 C 290.378906 427.75 290.578125 427.964844 290.792969 428.164062 C 291.085938 428.441406 291.398438 428.695312 291.722656 428.933594 C 291.921875 429.078125 292.121094 429.214844 292.332031 429.34375 C 292.710938 429.585938 293.105469 429.804688 293.515625 429.988281 C 293.675781 430.0625 293.84375 430.125 294.011719 430.1875 C 294.492188 430.378906 294.988281 430.539062 295.503906 430.652344 C 295.535156 430.65625 295.5625 430.671875 295.597656 430.675781 L 295.597656 461.078125 C 295.542969 461.089844 295.492188 461.113281 295.441406 461.125 C 294.894531 461.246094 294.367188 461.410156 293.855469 461.621094 C 293.730469 461.667969 293.613281 461.726562 293.492188 461.785156 C 293.019531 461.996094 292.5625 462.238281 292.128906 462.523438 C 292.082031 462.554688 292.027344 462.582031 291.980469 462.613281 C 291.527344 462.921875 291.109375 463.28125 290.710938 463.660156 C 290.609375 463.761719 290.507812 463.859375 290.40625 463.960938 C 290.058594 464.320312 289.730469 464.691406 289.441406 465.101562 Z M 297.59375 476.875 C 294.285156 476.875 291.59375 474.183594 291.59375 470.878906 C 291.59375 470.019531 291.78125 469.207031 292.109375 468.46875 C 292.109375 468.46875 292.109375 468.46875 292.109375 468.464844 C 292.117188 468.449219 292.125 468.433594 292.132812 468.417969 C 292.257812 468.148438 292.398438 467.886719 292.558594 467.636719 C 292.636719 467.511719 292.730469 467.402344 292.816406 467.285156 C 292.941406 467.121094 293.066406 466.960938 293.207031 466.8125 C 293.300781 466.710938 293.398438 466.605469 293.503906 466.511719 C 293.675781 466.351562 293.859375 466.203125 294.046875 466.0625 C 294.132812 466 294.210938 465.929688 294.300781 465.871094 C 294.574219 465.691406 294.863281 465.535156 295.164062 465.402344 C 295.269531 465.355469 295.375 465.320312 295.480469 465.28125 C 295.710938 465.191406 295.949219 465.117188 296.195312 465.058594 C 296.304688 465.035156 296.410156 465.003906 296.523438 464.984375 C 296.871094 464.921875 297.226562 464.878906 297.59375 464.878906 C 297.960938 464.878906 298.316406 464.921875 298.664062 464.984375 C 298.777344 465.003906 298.882812 465.035156 298.992188 465.058594 C 299.238281 465.117188 299.476562 465.191406 299.707031 465.28125 C 299.8125 465.320312 299.917969 465.355469 300.023438 465.402344 C 300.324219 465.535156 300.613281 465.691406 300.886719 465.871094 C 300.976562 465.929688 301.054688 466 301.140625 466.0625 C 301.328125 466.203125 301.511719 466.351562 301.683594 466.511719 C 301.785156 466.605469 301.886719 466.710938 301.980469 466.8125 C 302.121094 466.964844 302.246094 467.121094 302.371094 467.285156 C 302.460938 467.402344 302.550781 467.515625 302.632812 467.636719 C 302.789062 467.882812 302.929688 468.140625 303.050781 468.410156 C 303.058594 468.425781 303.070312 468.445312 303.078125 468.464844 C 303.082031 468.464844 303.082031 468.46875 303.082031 468.472656 C 303.40625 469.210938 303.59375 470.019531 303.59375 470.878906 C 303.59375 474.183594 300.902344 476.875 297.59375 476.875 Z M 337.820312 450.992188 L 305.746094 465.101562 C 305.457031 464.691406 305.128906 464.316406 304.785156 463.960938 C 304.683594 463.855469 304.582031 463.757812 304.480469 463.660156 C 304.082031 463.28125 303.664062 462.921875 303.210938 462.613281 C 303.164062 462.578125 303.113281 462.554688 303.0625 462.519531 C 302.632812 462.238281 302.171875 461.996094 301.699219 461.78125 C 301.578125 461.722656 301.460938 461.667969 301.335938 461.617188 C 300.824219 461.40625 300.296875 461.242188 299.75 461.121094 C 299.699219 461.109375 299.648438 461.085938 299.597656 461.074219 L 299.597656 430.675781 C 299.628906 430.671875 299.65625 430.65625 299.691406 430.652344 C 300.203125 430.539062 300.699219 430.378906 301.183594 430.1875 C 301.347656 430.125 301.515625 430.0625 301.675781 429.988281 C 302.085938 429.804688 302.480469 429.585938 302.863281 429.34375 C 303.070312 429.214844 303.273438 429.078125 303.46875 428.933594 C 303.792969 428.695312 304.105469 428.441406 304.398438 428.164062 C 304.617188 427.964844 304.8125 427.75 305.007812 427.527344 C 305.050781 427.484375 305.097656 427.441406 305.136719 427.394531 L 338.085938 445.847656 C 338.039062 445.992188 338.019531 446.140625 337.980469 446.285156 C 337.925781 446.484375 337.839844 446.667969 337.800781 446.867188 C 337.78125 446.953125 337.789062 447.039062 337.773438 447.125 C 337.660156 447.703125 337.59375 448.285156 337.59375 448.878906 C 337.59375 449.511719 337.660156 450.136719 337.78125 450.757812 C 337.792969 450.820312 337.800781 450.882812 337.8125 450.949219 C 337.816406 450.960938 337.816406 450.976562 337.820312 450.992188 Z M 353.589844 448.878906 C 353.589844 452.1875 350.898438 454.878906 347.589844 454.878906 C 345.144531 454.878906 343.039062 453.398438 342.109375 451.292969 C 342.109375 451.292969 342.109375 451.289062 342.109375 451.289062 C 341.765625 450.515625 341.589844 449.703125 341.589844 448.878906 C 341.589844 448.394531 341.660156 447.914062 341.789062 447.4375 C 341.796875 447.40625 341.808594 447.375 341.816406 447.347656 C 341.949219 446.878906 342.132812 446.417969 342.386719 445.964844 C 342.394531 445.957031 342.394531 445.941406 342.398438 445.929688 C 342.410156 445.910156 342.421875 445.882812 342.4375 445.863281 C 342.632812 445.527344 342.859375 445.207031 343.121094 444.917969 C 343.160156 444.871094 343.195312 444.824219 343.234375 444.78125 C 343.566406 444.429688 343.945312 444.109375 344.363281 443.839844 C 344.367188 443.839844 344.367188 443.835938 344.367188 443.835938 C 345.300781 443.238281 346.402344 442.878906 347.589844 442.878906 C 350.898438 442.878906 353.589844 445.570312 353.589844 448.878906 Z M 353.589844 448.878906 " fill-opacity="1" fill-rule="nonzero"/></g><path fill="rgb(7.449341%, 15.689087%, 24.308777%)" d="M 297.660156 464.527344 C 294.140625 464.527344 291.285156 467.378906 291.285156 470.898438 C 291.285156 474.421875 294.140625 477.273438 297.660156 477.273438 C 301.183594 477.273438 304.035156 474.421875 304.035156 470.898438 C 304.035156 467.378906 301.183594 464.527344 297.660156 464.527344 " fill-opacity="1" fill-rule="nonzero"/><path fill="rgb(7.449341%, 15.689087%, 24.308777%)" d="M 347.679688 442.609375 C 344.160156 442.609375 341.304688 445.464844 341.304688 448.984375 C 341.304688 452.503906 344.160156 455.359375 347.679688 455.359375 C 351.199219 455.359375 354.054688 452.503906 354.054688 448.984375 C 354.054688 445.464844 351.199219 442.609375 347.679688 442.609375 " fill-opacity="1" fill-rule="nonzero"/><path fill="rgb(7.449341%, 15.689087%, 24.308777%)" d="M 347.679688 386.332031 C 344.160156 386.332031 341.304688 389.1875 341.304688 392.707031 C 341.304688 396.226562 344.160156 399.082031 347.679688 399.082031 C 351.199219 399.082031 354.054688 396.226562 354.054688 392.707031 C 354.054688 389.1875 351.199219 386.332031 347.679688 386.332031 " fill-opacity="1" fill-rule="nonzero"/><path fill="rgb(7.449341%, 15.689087%, 24.308777%)" d="M 297.660156 364.019531 C 294.140625 364.019531 291.285156 366.871094 291.285156 370.394531 C 291.285156 373.914062 294.140625 376.769531 297.660156 376.769531 C 301.183594 376.769531 304.035156 373.914062 304.035156 370.394531 C 304.035156 366.871094 301.183594 364.019531 297.660156 364.019531 " fill-opacity="1" fill-rule="nonzero"/><path fill="rgb(7.449341%, 15.689087%, 24.308777%)" d="M 247.34375 386.332031 C 243.820312 386.332031 240.96875 389.1875 240.96875 392.707031 C 240.96875 396.226562 243.820312 399.082031 247.34375 399.082031 C 250.863281 399.082031 253.714844 396.226562 253.714844 392.707031 C 253.714844 389.1875 250.863281 386.332031 247.34375 386.332031 " fill-opacity="1" fill-rule="nonzero"/><path fill="rgb(7.449341%, 15.689087%, 24.308777%)" d="M 247.34375 442.609375 C 243.820312 442.609375 240.96875 445.464844 240.96875 448.984375 C 240.96875 452.503906 243.820312 455.359375 247.34375 455.359375 C 250.863281 455.359375 253.714844 452.503906 253.714844 448.984375 C 253.714844 445.464844 250.863281 442.609375 247.34375 442.609375 " fill-opacity="1" fill-rule="nonzero"/><path fill="rgb(74.899292%, 0%, 6.269836%)" d="M 297.660156 414.570312 C 294.140625 414.570312 291.285156 417.425781 291.285156 420.945312 C 291.285156 424.46875 294.140625 427.320312 297.660156 427.320312 C 301.183594 427.320312 304.035156 424.46875 304.035156 420.945312 C 304.035156 417.425781 301.183594 414.570312 297.660156 414.570312 " fill-opacity="1" fill-rule="nonzero"/></svg>