<svg xmlns="http://www.w3.org/2000/svg" width="375" viewBox="0 0 375 375" height="375" version="1.0"><defs><clipPath id="a"><path d="M 25.707031 144 L 105.957031 144 L 105.957031 190 L 25.707031 190 Z M 25.707031 144"/></clipPath><clipPath id="b"><path d="M 25.707031 119.265625 L 105.957031 119.265625 L 105.957031 213.765625 L 25.707031 213.765625 Z M 25.707031 119.265625"/></clipPath></defs><g clip-path="url(#a)"><path fill="#861922" d="M 85.761719 178.554688 L 105.734375 166.464844 L 105.949219 166.597656 L 105.949219 166.464844 L 70.160156 144.824219 L 70.160156 169.121094 L 82.183594 176.390625 Z M 49.480469 156.597656 L 63.363281 165.007812 L 63.363281 189.308594 L 25.710938 166.511719 L 25.710938 166.390625 L 25.929688 166.511719 L 45.898438 154.433594 L 49.480469 156.597656" fill-rule="evenodd"/></g><g clip-path="url(#b)" fill-rule="evenodd"><path fill="#9F0A16" d="M 105.925781 190.652344 L 105.925781 166.644531 L 105.710938 166.511719 L 88.882812 176.695312 L 85.738281 178.601562 L 65.808594 190.664062 L 65.808594 190.835938 L 45.753906 178.699219 L 25.710938 190.570312 L 25.710938 190.652344 L 60.871094 211.96875 C 63.582031 213.617188 67.777344 213.765625 70.171875 212.308594 Z M 61.464844 120.71875 C 63.859375 119.261719 68.054688 119.417969 70.765625 121.070312 L 105.925781 142.382812 L 105.925781 142.46875 L 85.886719 154.324219 L 65.832031 142.199219 L 65.832031 142.371094 L 45.898438 154.433594 L 42.753906 156.328125 L 25.929688 166.511719 L 25.710938 166.390625 L 25.710938 142.382812 L 61.464844 120.71875"/><path fill="#BF0010" d="M 62.878906 189.0625 L 45.753906 178.699219 L 25.710938 190.570312 L 25.710938 190.652344 L 60.871094 211.96875 C 61.476562 212.332031 62.167969 212.636719 62.878906 212.855469 C 63.824219 213.132812 64.828125 213.289062 65.808594 213.300781 L 65.808594 190.835938 Z M 65.832031 142.199219 L 65.832031 119.722656 C 66.8125 119.746094 67.816406 119.902344 68.757812 120.183594 C 69.472656 120.402344 70.160156 120.691406 70.765625 121.070312 L 105.925781 142.382812 L 105.925781 142.46875 L 85.886719 154.324219 L 68.757812 143.972656 L 65.832031 142.199219"/></g><g fill="#13283E"><g><g><path d="M 12.859375 0 L 3.625 0 L 3.625 -36.28125 L 12.859375 -36.28125 Z M 12.859375 0" transform="translate(124.7 181.985)"/></g></g></g><g fill="#13283E"><g><g><path d="M 13.578125 -28.34375 C 17.691406 -28.34375 21.523438 -27.289062 25.078125 -25.1875 L 22.03125 -19.390625 C 18.570312 -21.253906 15.632812 -22.1875 13.21875 -22.1875 C 11.382812 -22.1875 10.46875 -21.546875 10.46875 -20.265625 C 10.46875 -19.578125 10.96875 -19 11.96875 -18.53125 C 12.96875 -18.0625 14.191406 -17.632812 15.640625 -17.25 C 17.097656 -16.875 18.539062 -16.398438 19.96875 -15.828125 C 21.40625 -15.265625 22.625 -14.359375 23.625 -13.109375 C 24.632812 -11.867188 25.140625 -10.347656 25.140625 -8.546875 C 25.140625 -5.753906 24.050781 -3.570312 21.875 -2 C 19.695312 -0.425781 16.863281 0.359375 13.375 0.359375 C 8.425781 0.359375 4.242188 -0.953125 0.828125 -3.578125 L 3.6875 -9.28125 C 6.96875 -6.96875 10.265625 -5.8125 13.578125 -5.8125 C 15.617188 -5.8125 16.640625 -6.445312 16.640625 -7.71875 C 16.640625 -8.445312 16.144531 -9.050781 15.15625 -9.53125 C 14.175781 -10.019531 12.976562 -10.453125 11.5625 -10.828125 C 10.144531 -11.210938 8.726562 -11.6875 7.3125 -12.25 C 5.894531 -12.820312 4.691406 -13.710938 3.703125 -14.921875 C 2.722656 -16.128906 2.234375 -17.648438 2.234375 -19.484375 C 2.234375 -22.285156 3.285156 -24.460938 5.390625 -26.015625 C 7.492188 -27.566406 10.222656 -28.34375 13.578125 -28.34375 Z M 13.578125 -28.34375" transform="translate(141.18 181.985)"/></g></g></g><g fill="#13283E"><g><g><path d="M 30.421875 -27.9375 L 18.34375 2.90625 C 16.269531 7.945312 12.675781 10.46875 7.5625 10.46875 C 4.59375 10.46875 1.882812 9.519531 -0.5625 7.625 L 3.15625 1.5 C 4.40625 2.5 5.632812 3 6.84375 3 C 8.425781 3 9.582031 2.257812 10.3125 0.78125 L 10.984375 -0.625 L -0.625 -27.9375 L 8.609375 -27.9375 L 15.4375 -9.375 L 21.515625 -27.9375 Z M 30.421875 -27.9375" transform="translate(167.763 181.985)"/></g></g></g><g fill="#BF0010"><g><g><path d="M 20.625 -36.59375 C 23.320312 -36.59375 25.972656 -36.039062 28.578125 -34.9375 C 31.191406 -33.832031 33.414062 -32.34375 35.25 -30.46875 L 29.90625 -24.15625 C 28.726562 -25.601562 27.316406 -26.75 25.671875 -27.59375 C 24.035156 -28.445312 22.40625 -28.875 20.78125 -28.875 C 17.914062 -28.875 15.515625 -27.859375 13.578125 -25.828125 C 11.640625 -23.804688 10.671875 -21.3125 10.671875 -18.34375 C 10.671875 -15.300781 11.640625 -12.757812 13.578125 -10.71875 C 15.515625 -8.6875 17.914062 -7.671875 20.78125 -7.671875 C 22.300781 -7.671875 23.878906 -8.050781 25.515625 -8.8125 C 27.160156 -9.570312 28.625 -10.609375 29.90625 -11.921875 L 35.296875 -6.21875 C 33.328125 -4.21875 31.003906 -2.609375 28.328125 -1.390625 C 25.648438 -0.179688 22.976562 0.421875 20.3125 0.421875 C 14.851562 0.421875 10.3125 -1.359375 6.6875 -4.921875 C 3.0625 -8.484375 1.25 -12.925781 1.25 -18.25 C 1.25 -23.457031 3.09375 -27.816406 6.78125 -31.328125 C 10.476562 -34.835938 15.09375 -36.59375 20.625 -36.59375 Z M 20.625 -36.59375" transform="translate(197.814 181.985)"/></g></g></g><g fill="#BF0010"><g><g><path d="M 22.1875 -28.34375 C 25.257812 -28.34375 27.726562 -27.367188 29.59375 -25.421875 C 31.457031 -23.472656 32.390625 -20.875 32.390625 -17.625 L 32.390625 0 L 23.421875 0 L 23.421875 -15.140625 C 23.421875 -16.753906 22.976562 -18.035156 22.09375 -18.984375 C 21.21875 -19.941406 20.019531 -20.421875 18.5 -20.421875 C 16.769531 -20.421875 15.382812 -19.796875 14.34375 -18.546875 C 13.3125 -17.304688 12.796875 -15.71875 12.796875 -13.78125 L 12.796875 0 L 3.828125 0 L 3.828125 -38.453125 L 12.796875 -38.453125 L 12.796875 -23.328125 C 14.765625 -26.609375 17.894531 -28.28125 22.1875 -28.34375 Z M 22.1875 -28.34375" transform="translate(233.674 181.985)"/></g></g></g><g fill="#BF0010"><g><g><path d="M 16.125 -28.34375 C 19.957031 -28.34375 22.9375 -27.453125 25.0625 -25.671875 C 27.1875 -23.898438 28.265625 -21.425781 28.296875 -18.25 L 28.296875 0 L 19.546875 0 L 19.546875 -3.21875 C 17.710938 -0.789062 14.859375 0.421875 10.984375 0.421875 C 8.046875 0.421875 5.710938 -0.390625 3.984375 -2.015625 C 2.265625 -3.640625 1.40625 -5.75 1.40625 -8.34375 C 1.40625 -11 2.328125 -13.0625 4.171875 -14.53125 C 6.015625 -16 8.664062 -16.753906 12.125 -16.796875 L 19.484375 -16.796875 L 19.484375 -17.203125 C 19.484375 -18.585938 19.023438 -19.664062 18.109375 -20.4375 C 17.191406 -21.21875 15.835938 -21.609375 14.046875 -21.609375 C 11.523438 -21.609375 8.742188 -20.832031 5.703125 -19.28125 L 3.15625 -25.1875 C 7.6875 -27.289062 12.007812 -28.34375 16.125 -28.34375 Z M 13.734375 -5.65625 C 15.148438 -5.65625 16.394531 -6.007812 17.46875 -6.71875 C 18.539062 -7.425781 19.210938 -8.347656 19.484375 -9.484375 L 19.484375 -11.96875 L 13.84375 -11.96875 C 11.144531 -11.96875 9.796875 -10.96875 9.796875 -8.96875 C 9.796875 -7.925781 10.140625 -7.113281 10.828125 -6.53125 C 11.523438 -5.945312 12.492188 -5.65625 13.734375 -5.65625 Z M 13.734375 -5.65625" transform="translate(268.808 181.985)"/></g></g></g><g fill="#BF0010"><g><g><path d="M 4.6875 -39.359375 C 5.570312 -40.242188 6.703125 -40.6875 8.078125 -40.6875 C 9.460938 -40.6875 10.59375 -40.242188 11.46875 -39.359375 C 12.351562 -38.484375 12.796875 -37.351562 12.796875 -35.96875 C 12.796875 -34.582031 12.351562 -33.441406 11.46875 -32.546875 C 10.59375 -31.648438 9.460938 -31.203125 8.078125 -31.203125 C 6.703125 -31.203125 5.570312 -31.648438 4.6875 -32.546875 C 3.8125 -33.441406 3.375 -34.582031 3.375 -35.96875 C 3.375 -37.351562 3.8125 -38.484375 4.6875 -39.359375 Z M 12.484375 0 L 3.578125 0 L 3.578125 -27.9375 L 12.484375 -27.9375 Z M 12.484375 0" transform="translate(299.9 181.985)"/></g></g></g><g fill="#BF0010"><g><g><path d="M 21.875 -28.34375 C 24.945312 -28.34375 27.414062 -27.367188 29.28125 -25.421875 C 31.144531 -23.472656 32.078125 -20.875 32.078125 -17.625 L 32.078125 0 L 23.171875 0 L 23.171875 -15.140625 C 23.171875 -16.753906 22.726562 -18.035156 21.84375 -18.984375 C 20.96875 -19.941406 19.769531 -20.421875 18.25 -20.421875 C 16.65625 -20.421875 15.347656 -19.898438 14.328125 -18.859375 C 13.304688 -17.828125 12.710938 -16.460938 12.546875 -14.765625 L 12.546875 0 L 3.578125 0 L 3.578125 -27.9375 L 12.546875 -27.9375 L 12.546875 -23.375 C 14.515625 -26.625 17.625 -28.28125 21.875 -28.34375 Z M 21.875 -28.34375" transform="translate(316.016 181.985)"/></g></g></g></svg>