<svg id="visual" viewBox="0 0 900 600" width="900" height="600" xmlns="http://www.w3.org/2000/svg" xmlns:xlink="http://www.w3.org/1999/xlink" version="1.1"><rect x="0" y="0" width="900" height="600" fill="#13283E"></rect><path d="M0 88L30 92.8C60 97.7 120 107.3 180 112.7C240 118 300 119 360 116.3C420 113.7 480 107.3 540 88.8C600 70.3 660 39.7 720 37C780 34.3 840 59.7 870 72.3L900 85L900 0L870 0C840 0 780 0 720 0C660 0 600 0 540 0C480 0 420 0 360 0C300 0 240 0 180 0C120 0 60 0 30 0L0 0Z" fill="#FFFFFF" stroke-linecap="round" stroke-linejoin="miter"></path></svg>